<svg id="Camada_1" data-name="Camada 1" xmlns="http://www.w3.org/2000/svg" xmlns:xlink="http://www.w3.org/1999/xlink" viewBox="0 0 586.67 250.36"><defs><style>.cls-1{fill:url(#Gradiente_sem_nome_2);}.cls-2{fill:url(#Gradiente_sem_nome_7);}</style><linearGradient id="Gradiente_sem_nome_2" x1="334.67" y1="649.96" x2="503.58" y2="878.23" gradientTransform="translate(0 -244)" gradientUnits="userSpaceOnUse"><stop offset="0" stop-color="#39f"/><stop offset="0.42" stop-color="#3197fe"/><stop offset="0.65" stop-color="#298ffc"/><stop offset="0.83" stop-color="#1b82f8"/><stop offset="0.98" stop-color="#086ff3"/><stop offset="1" stop-color="#056cf2"/></linearGradient><linearGradient id="Gradiente_sem_nome_7" x1="559.19" y1="532.29" x2="834" y2="532.29" gradientUnits="userSpaceOnUse"><stop offset="0" stop-color="#39f"/><stop offset="0.42" stop-color="#3197fe"/><stop offset="0.65" stop-color="#298ffc"/><stop offset="0.83" stop-color="#1b82f8"/><stop offset="0.98" stop-color="#086ff3"/><stop offset="1" stop-color="#056cf2"/></linearGradient></defs><title>Logo</title><g id="logo"><g id="image"><path class="cls-1" d="M398.13,657.47c-17.44-27.75-61-97.14-78.47-124.88l41.12-54.44L476.42,657.39h53.83l1-250.29H470.1L471,537,387.25,407.18h-52l-88,125.48c17.44,27.74,60.29,97.06,77.74,124.81Z" transform="translate(-247.33 -407.1)"/><path class="cls-2" d="M712.8,588.52a63.06,63.06,0,0,1-30.83,8.2c-34.89,0-63.16-28.87-63.16-64.43s28.27-64.44,63.16-64.44a62.29,62.29,0,0,1,30.83,8.2c15.71,8.94,43.55,45.13,52.2,56.71h69c-12.86-19.77-58.88-89.49-89-107.91A120.34,120.34,0,0,0,682,407.1c-67.82,0-122.78,56-122.78,125.19s55,125.18,122.78,125.18a120.34,120.34,0,0,0,63.08-17.75c33.08-20.22,82-96,89-107H765S729.11,579.35,712.8,588.52Z" transform="translate(-247.33 -407.1)"/></g></g></svg>